<svg width="901" height="601" viewBox="0 0 901 601" fill="none" xmlns="http://www.w3.org/2000/svg">
<rect x="0.00195312" y="0.000488281" width="900" height="600" fill="#416EF7"/>
<path d="M75.001 0.0107422C75.001 9.85988 76.9409 19.6126 80.71 28.712C84.4791 37.8114 90.0036 46.0794 96.968 53.0438C103.932 60.0081 112.2 65.5326 121.3 69.3017C130.399 73.0708 140.152 75.0107 150.001 75.0107V0.0107487L75.001 0.0107422Z" fill="url(#paint0_linear_824_785)"/>
<path d="M225.002 0.00194985C215.153 0.00195028 205.4 1.94188 196.301 5.71099C187.201 9.48009 178.933 15.0046 171.969 21.9689C165.005 28.9333 159.48 37.2013 155.711 46.3007C151.942 55.4001 150.002 65.1528 150.002 75.002L225.002 75.0019L225.002 0.00194985Z" fill="url(#paint1_linear_824_785)"/>
<path d="M300 150.011C290.151 150.011 280.398 148.071 271.299 144.302C262.199 140.533 253.931 135.009 246.967 128.044C240.003 121.08 234.478 112.812 230.709 103.712C226.94 94.6131 225 84.8604 225 75.0112L300 75.0112L300 150.011Z" fill="url(#paint2_linear_824_785)"/>
<path d="M525.001 75.0112C525.001 84.8604 523.061 94.6131 519.292 103.712C515.523 112.812 509.998 121.08 503.034 128.044C496.07 135.009 487.802 140.533 478.702 144.302C469.603 148.071 459.85 150.011 450.001 150.011L450.001 75.0112L525.001 75.0112Z" fill="url(#paint3_linear_824_785)"/>
<path d="M600 150.001C609.849 150.001 619.602 148.061 628.701 144.292C637.801 140.523 646.069 134.998 653.033 128.034C659.997 121.07 665.522 112.802 669.291 103.702C673.06 94.6028 675 84.8501 675 75.001L600 75.001L600 150.001Z" fill="url(#paint4_linear_824_785)"/>
<path d="M825.001 75.0117C825.001 84.8609 823.061 94.6136 819.292 103.713C815.523 112.812 809.998 121.08 803.034 128.045C796.07 135.009 787.802 140.534 778.702 144.303C769.603 148.072 759.85 150.012 750.001 150.012L750.001 75.0117L825.001 75.0117Z" fill="url(#paint5_linear_824_785)"/>
<path d="M225.002 150.012C215.153 150.012 205.4 151.952 196.301 155.721C187.201 159.49 178.933 165.014 171.969 171.979C165.005 178.943 159.48 187.211 155.711 196.31C151.942 205.41 150.002 215.163 150.002 225.012L225.002 225.012L225.002 150.012Z" fill="url(#paint6_linear_824_785)"/>
<path d="M150.002 225.012C150.002 234.861 151.942 244.614 155.711 253.713C159.48 262.812 165.005 271.08 171.969 278.045C178.933 285.009 187.201 290.534 196.301 294.303C205.4 298.072 215.153 300.012 225.002 300.012L225.002 225.012L150.002 225.012Z" fill="url(#paint7_linear_824_785)"/>
<path d="M300.002 300.011C309.851 300.011 319.604 298.071 328.703 294.302C337.803 290.533 346.071 285.008 353.035 278.044C359.999 271.079 365.524 262.811 369.293 253.712C373.062 244.613 375.002 234.86 375.002 225.011L300.002 225.011L300.002 300.011Z" fill="url(#paint8_linear_824_785)"/>
<path d="M600.002 225C600.002 215.151 598.062 205.399 594.293 196.299C590.524 187.2 584.999 178.932 578.035 171.967C571.071 165.003 562.803 159.479 553.703 155.71C544.604 151.94 534.851 150 525.002 150L525.002 225H600.002Z" fill="url(#paint9_linear_824_785)"/>
<path d="M600.002 225.01C609.851 225.01 619.604 223.07 628.703 219.301C637.803 215.532 646.071 210.008 653.035 203.043C659.999 196.079 665.524 187.811 669.293 178.712C673.062 169.612 675.002 159.859 675.002 150.01L600.002 150.01L600.002 225.01Z" fill="url(#paint10_linear_824_785)"/>
<path d="M750.002 300.01C750.002 290.161 751.942 280.408 755.711 271.309C759.48 262.21 765.005 253.942 771.969 246.977C778.933 240.013 787.201 234.488 796.301 230.719C805.4 226.95 815.153 225.01 825.002 225.01L825.002 300.01L750.002 300.01Z" fill="url(#paint11_linear_824_785)"/>
<path d="M0.000976562 300.01C9.85012 300.01 19.6028 301.95 28.7022 305.719C37.8017 309.488 46.0696 315.012 53.034 321.977C59.9984 328.941 65.5228 337.209 69.2919 346.309C73.061 355.408 75.001 365.161 75.001 375.01H0.000979841L0.000976562 300.01Z" fill="url(#paint12_linear_824_785)"/>
<path d="M75.0019 300.01C84.8511 300.01 94.6038 301.95 103.703 305.719C112.803 309.488 121.071 315.012 128.035 321.977C134.999 328.941 140.524 337.209 144.293 346.309C148.062 355.408 150.002 365.161 150.002 375.01L75.0019 375.01L75.0019 300.01Z" fill="url(#paint13_linear_824_785)"/>
<path d="M225.002 525.01C215.153 525.01 205.4 523.07 196.301 519.301C187.201 515.532 178.933 510.008 171.969 503.043C165.005 496.079 159.48 487.811 155.711 478.712C151.942 469.612 150.002 459.859 150.002 450.01L225.002 450.01L225.002 525.01Z" fill="url(#paint14_linear_824_785)"/>
<path d="M450.001 375.01C440.152 375.01 430.399 373.07 421.3 369.301C412.2 365.532 403.932 360.007 396.968 353.043C390.004 346.078 384.479 337.81 380.71 328.711C376.941 319.612 375.001 309.859 375.001 300.01L450.001 300.01L450.001 375.01Z" fill="url(#paint15_linear_824_785)"/>
<path d="M525.002 225.012C525.002 234.861 526.942 244.614 530.711 253.713C534.48 262.812 540.005 271.08 546.969 278.045C553.933 285.009 562.201 290.534 571.301 294.303C580.4 298.072 590.153 300.012 600.002 300.012L600.002 225.012L525.002 225.012Z" fill="url(#paint16_linear_824_785)"/>
<path d="M600.002 375.012C600.002 384.861 601.942 394.614 605.711 403.713C609.48 412.812 615.005 421.08 621.969 428.045C628.933 435.009 637.201 440.534 646.301 444.303C655.4 448.072 665.153 450.012 675.002 450.012L675.002 375.012L600.002 375.012Z" fill="url(#paint17_linear_824_785)"/>
<path d="M750.002 375.01C750.002 384.859 748.062 394.612 744.293 403.712C740.524 412.811 734.999 421.079 728.035 428.043C721.071 435.008 712.803 440.532 703.703 444.301C694.604 448.07 684.851 450.01 675.002 450.01L675.002 375.01H750.002Z" fill="url(#paint18_linear_824_785)"/>
<path d="M750.002 225.01C750.002 234.859 748.062 244.612 744.293 253.712C740.524 262.811 734.999 271.079 728.035 278.043C721.071 285.008 712.803 290.532 703.703 294.301C694.604 298.07 684.851 300.01 675.002 300.01L675.002 225.01H750.002Z" fill="url(#paint19_linear_824_785)"/>
<path d="M75.0859 525.011C65.2368 525.011 55.4841 523.071 46.3847 519.302C37.2853 515.533 29.0173 510.008 22.0529 503.044C15.0885 496.079 9.56408 487.811 5.79497 478.712C2.02587 469.613 0.0859381 459.86 0.0859384 450.011L75.0859 450.011L75.0859 525.011Z" fill="url(#paint20_linear_824_785)"/>
<path d="M0.000976562 600.012C0.000977424 590.163 1.94091 580.41 5.71001 571.31C9.47912 562.211 15.0036 553.943 21.968 546.979C28.9324 540.014 37.2003 534.49 46.2997 530.721C55.3991 526.952 65.1518 525.012 75.001 525.012L75.001 600.012L0.000976562 600.012Z" fill="url(#paint21_linear_824_785)"/>
<path d="M150.065 525.01C159.915 525.01 169.667 526.95 178.767 530.719C187.866 534.488 196.134 540.013 203.098 546.977C210.063 553.942 215.587 562.21 219.356 571.309C223.126 580.408 225.065 590.161 225.065 600.01H150.065L150.065 525.01Z" fill="url(#paint22_linear_824_785)"/>
<path d="M300.039 525.011C290.19 525.011 280.437 523.071 271.338 519.302C262.238 515.533 253.97 510.008 247.006 503.044C240.042 496.079 234.517 487.811 230.748 478.712C226.979 469.613 225.039 459.86 225.039 450.011L300.039 450.011L300.039 525.011Z" fill="url(#paint23_linear_824_785)"/>
<path d="M450.001 375.012C459.85 375.012 469.603 376.952 478.702 380.721C487.802 384.49 496.07 390.015 503.034 396.979C509.998 403.944 515.523 412.212 519.292 421.311C523.061 430.41 525.001 440.163 525.001 450.012L450.001 450.012L450.001 375.012Z" fill="url(#paint24_linear_824_785)"/>
<path d="M525.001 600.012C515.152 600.012 505.399 598.072 496.3 594.303C487.2 590.534 478.932 585.01 471.968 578.045C465.004 571.081 459.479 562.813 455.71 553.713C451.941 544.614 450.001 534.861 450.001 525.012L525.001 525.012L525.001 600.012Z" fill="url(#paint25_linear_824_785)"/>
<path d="M750.001 525.012C750.001 534.861 751.941 544.614 755.71 553.713C759.479 562.813 765.004 571.081 771.968 578.045C778.932 585.01 787.2 590.534 796.3 594.303C805.399 598.072 815.152 600.012 825.001 600.012L825.001 525.012L750.001 525.012Z" fill="url(#paint26_linear_824_785)"/>
<path d="M0 75.0103C9.84914 75.0103 19.6018 73.0833 28.7013 69.3393C37.8007 65.5953 46.0686 60.1077 53.033 53.1897C59.9974 46.2717 65.5219 38.0589 69.291 29.0202C73.0601 19.9814 75 10.2937 75 0.510254L3.2565e-06 0.510254L0 75.0103Z" fill="url(#paint27_linear_824_785)"/>
<path d="M225.002 0.00194985C215.153 0.00195028 205.4 1.94188 196.301 5.71099C187.201 9.48009 178.933 15.0046 171.969 21.9689C165.005 28.9333 159.48 37.2013 155.711 46.3007C151.942 55.4001 150.002 65.1528 150.002 75.002L225.002 75.0019L225.002 0.00194985Z" fill="url(#paint28_linear_824_785)"/>
<path d="M300 150.011C290.151 150.011 280.398 148.071 271.299 144.302C262.199 140.533 253.931 135.008 246.967 128.044C240.003 121.079 234.478 112.811 230.709 103.712C226.94 94.6126 225 84.8599 225 75.0107L300 75.0107L300 150.011Z" fill="url(#paint29_linear_824_785)"/>
<path d="M525.001 75.0103C515.152 75.0103 505.399 73.0703 496.3 69.3012C487.2 65.5321 478.932 60.0077 471.968 53.0433C465.004 46.0789 459.479 37.8109 455.71 28.7115C451.941 19.6121 450.001 9.85939 450.001 0.0102539L525.001 0.0102605V75.0103Z" fill="url(#paint30_linear_824_785)"/>
<path d="M525.001 0.012207C525.001 9.86135 526.941 19.614 530.71 28.7135C534.479 37.8129 540.004 46.0808 546.968 53.0452C553.932 60.0096 562.2 65.5341 571.3 69.3032C580.399 73.0723 590.152 75.0122 600.001 75.0122V0.0122136L525.001 0.012207Z" fill="url(#paint31_linear_824_785)"/>
<path d="M825.001 75.0103C815.152 75.0103 805.399 73.0703 796.3 69.3012C787.2 65.5321 778.932 60.0077 771.968 53.0433C765.004 46.0789 759.479 37.8109 755.71 28.7115C751.941 19.6121 750.001 9.85939 750.001 0.0102539L825.001 0.0102605V75.0103Z" fill="url(#paint32_linear_824_785)"/>
<path d="M0 225.01C9.84914 225.01 19.6018 223.07 28.7013 219.301C37.8007 215.532 46.0686 210.007 53.033 203.043C59.9974 196.078 65.5219 187.81 69.291 178.711C73.0601 169.612 75 159.859 75 150.01L3.27835e-06 150.01L0 225.01Z" fill="url(#paint33_linear_824_785)"/>
<path d="M225.002 299.01C225.002 308.859 226.942 318.612 230.711 327.712C234.48 336.811 240.005 345.079 246.969 352.043C253.933 359.008 262.201 364.532 271.301 368.301C280.4 372.07 290.153 374.01 300.002 374.01L300.002 299.01L225.002 299.01Z" fill="url(#paint34_linear_824_785)"/>
<path d="M375.001 150C365.152 150 355.399 151.94 346.3 155.71C337.2 159.479 328.932 165.003 321.968 171.967C315.004 178.932 309.479 187.2 305.71 196.299C301.941 205.399 300.001 215.151 300.001 225L375.001 225L375.001 150Z" fill="url(#paint35_linear_824_785)"/>
<path d="M600.001 225C600.001 215.151 598.061 205.399 594.292 196.299C590.523 187.2 584.998 178.932 578.034 171.967C571.07 165.003 562.802 159.479 553.702 155.71C544.603 151.94 534.85 150 525.001 150L525.001 225H600.001Z" fill="url(#paint36_linear_824_785)"/>
<path d="M600 225.01C609.849 225.01 619.602 223.07 628.701 219.301C637.801 215.532 646.069 210.008 653.033 203.043C659.997 196.079 665.522 187.811 669.291 178.712C673.06 169.612 675 159.859 675 150.01L600 150.01L600 225.01Z" fill="url(#paint37_linear_824_785)"/>
<path d="M750 300.01C750 290.161 751.94 280.408 755.709 271.309C759.478 262.21 765.003 253.942 771.967 246.977C778.931 240.013 787.199 234.488 796.299 230.719C805.398 226.95 815.151 225.01 825 225.01L825 300.01L750 300.01Z" fill="url(#paint38_linear_824_785)"/>
<path d="M0 300.01C9.84914 300.01 19.6018 301.95 28.7013 305.719C37.8007 309.488 46.0686 315.013 53.033 321.977C59.9974 328.942 65.5219 337.21 69.291 346.309C73.0601 355.408 75 365.161 75 375.01H3.27835e-06L0 300.01Z" fill="url(#paint39_linear_824_785)"/>
<path d="M150.001 375.011C150.001 365.162 151.941 355.409 155.71 346.31C159.479 337.211 165.004 328.943 171.968 321.978C178.932 315.014 187.2 309.489 196.3 305.72C205.399 301.951 215.152 300.011 225.001 300.011L225.001 375.011L150.001 375.011Z" fill="url(#paint40_linear_824_785)"/>
<path d="M450 375.01C440.151 375.01 430.398 373.07 421.299 369.301C412.199 365.532 403.931 360.007 396.967 353.043C390.003 346.078 384.478 337.81 380.709 328.711C376.94 319.612 375 309.859 375 300.01L450 300.01L450 375.01Z" fill="url(#paint41_linear_824_785)"/>
<path d="M450 300.01C459.849 300.01 469.602 298.07 478.701 294.301C487.801 290.532 496.069 285.007 503.033 278.043C509.997 271.078 515.522 262.81 519.291 253.711C523.06 244.612 525 234.859 525 225.01L450 225.01L450 300.01Z" fill="url(#paint42_linear_824_785)"/>
<path d="M750.002 375.01C740.153 375.01 730.4 373.07 721.301 369.301C712.201 365.532 703.933 360.007 696.969 353.043C690.005 346.078 684.48 337.81 680.711 328.711C676.942 319.612 675.002 309.859 675.002 300.01L750.002 300.01L750.002 375.01Z" fill="url(#paint43_linear_824_785)"/>
<path d="M750.002 374.999C750.002 365.149 751.942 355.397 755.711 346.297C759.48 337.198 765.005 328.93 771.969 321.966C778.933 315.001 787.201 309.477 796.301 305.708C805.4 301.938 815.153 299.999 825.002 299.999L825.002 374.999L750.002 374.999Z" fill="url(#paint44_linear_824_785)"/>
<path d="M75.126 525.01C65.2768 525.01 55.5241 523.07 46.4247 519.301C37.3253 515.532 29.0574 510.008 22.093 503.043C15.1286 496.079 9.60411 487.811 5.83501 478.712C2.06591 469.612 0.125977 459.859 0.125977 450.01L75.126 450.01L75.126 525.01Z" fill="url(#paint45_linear_824_785)"/>
<path d="M150.105 525.01C159.955 525.01 169.707 526.95 178.807 530.719C187.906 534.488 196.174 540.013 203.138 546.977C210.103 553.942 215.627 562.21 219.396 571.309C223.166 580.408 225.105 590.161 225.105 600.01H150.105L150.105 525.01Z" fill="url(#paint46_linear_824_785)"/>
<path d="M300.079 375.01C309.928 375.01 319.681 376.95 328.78 380.719C337.88 384.488 346.148 390.013 353.112 396.977C360.076 403.942 365.601 412.21 369.37 421.309C373.139 430.408 375.079 440.161 375.079 450.01L300.079 450.01L300.079 375.01Z" fill="url(#paint47_linear_824_785)"/>
<path d="M600.06 450.01C600.06 459.859 598.12 469.612 594.351 478.712C590.581 487.811 585.057 496.079 578.093 503.043C571.128 510.008 562.86 515.532 553.761 519.301C544.661 523.07 534.909 525.01 525.06 525.01L525.06 450.01H600.06Z" fill="url(#paint48_linear_824_785)"/>
<path d="M600.155 525.001C600.155 515.152 602.095 505.399 605.864 496.3C609.633 487.2 615.158 478.932 622.122 471.968C629.087 465.004 637.355 459.479 646.454 455.71C655.553 451.941 665.306 450.001 675.155 450.001L675.155 525.001L600.155 525.001Z" fill="url(#paint49_linear_824_785)"/>
<path d="M750.041 450.01C750.041 459.859 751.981 469.612 755.75 478.711C759.519 487.811 765.044 496.079 772.008 503.043C778.972 510.008 787.24 515.532 796.34 519.301C805.439 523.07 815.192 525.01 825.041 525.01L825.041 450.01L750.041 450.01Z" fill="url(#paint50_linear_824_785)"/>
<path d="M150.004 150.009C150.004 140.16 148.064 130.407 144.295 121.308C140.526 112.208 135.001 103.94 128.037 96.9758C121.073 90.0114 112.805 84.4869 103.705 80.7178C94.6057 76.9487 84.853 75.0088 75.0039 75.0088L75.0039 150.009H150.004Z" fill="url(#paint51_linear_824_785)"/>
<path d="M300.002 75.001C300.002 65.1518 298.062 55.3991 294.293 46.2997C290.524 37.2003 284.999 28.9324 278.035 21.968C271.071 15.0036 262.803 9.47911 253.703 5.71001C244.604 1.94091 234.851 0.000976132 225.002 0.000976563L225.002 75.001H300.002Z" fill="url(#paint52_linear_824_785)"/>
<path d="M450.001 75C450.001 84.8491 448.061 94.6018 444.292 103.701C440.523 112.801 434.998 121.069 428.034 128.033C421.07 134.997 412.802 140.522 403.702 144.291C394.603 148.06 384.85 150 375.001 150L375.001 75H450.001Z" fill="url(#paint53_linear_824_785)"/>
<path d="M600.001 75C600.001 84.8491 598.061 94.6018 594.292 103.701C590.523 112.801 584.998 121.069 578.034 128.033C571.07 134.997 562.802 140.522 553.702 144.291C544.603 148.06 534.85 150 525.001 150L525.001 75H600.001Z" fill="url(#paint54_linear_824_785)"/>
<path d="M750.002 75C750.002 65.1509 748.062 55.3982 744.293 46.2987C740.524 37.1993 734.999 28.9314 728.035 21.967C721.071 15.0026 712.803 9.47814 703.703 5.70903C694.604 1.93993 684.851 -4.3052e-07 675.002 0L675.002 75H750.002Z" fill="url(#paint55_linear_824_785)"/>
<path d="M900.002 75C900.002 84.8491 898.062 94.6018 894.293 103.701C890.524 112.801 884.999 121.069 878.035 128.033C871.071 134.997 862.803 140.522 853.703 144.291C844.604 148.06 834.851 150 825.002 150L825.002 75H900.002Z" fill="url(#paint56_linear_824_785)"/>
<path d="M150.002 225C150.002 215.151 148.062 205.399 144.293 196.299C140.524 187.2 134.999 178.932 128.035 171.967C121.071 165.003 112.803 159.479 103.703 155.71C94.6038 151.94 84.8511 150 75.0019 150L75.002 225H150.002Z" fill="url(#paint57_linear_824_785)"/>
<path d="M0.00195312 300.011C9.85109 300.011 19.6038 298.071 28.7032 294.302C37.8026 290.533 46.0706 285.008 53.035 278.044C59.9994 271.079 65.5238 262.811 69.2929 253.712C73.062 244.613 75.002 234.86 75.002 225.011L0.0019564 225.011L0.00195312 300.011Z" fill="url(#paint58_linear_824_785)"/>
<path d="M300.001 75.0103C309.85 75.0103 319.603 73.0703 328.702 69.3012C337.802 65.5321 346.07 60.0077 353.034 53.0433C359.998 46.0789 365.523 37.8109 369.292 28.7115C373.061 19.6121 375.001 9.85939 375.001 0.0102539L300.001 0.0102539L300.001 75.0103Z" fill="url(#paint59_linear_824_785)"/>
<path d="M825.002 150.01C825.002 159.859 826.942 169.612 830.711 178.712C834.48 187.811 840.005 196.079 846.969 203.043C853.933 210.008 862.201 215.532 871.301 219.301C880.4 223.07 890.153 225.01 900.002 225.01V150.01L825.002 150.01Z" fill="url(#paint60_linear_824_785)"/>
<path d="M825.002 525.011C825.002 534.86 826.942 544.613 830.711 553.712C834.48 562.811 840.005 571.079 846.969 578.044C853.933 585.008 862.201 590.533 871.301 594.302C880.4 598.071 890.153 600.011 900.002 600.011V525.011L825.002 525.011Z" fill="url(#paint61_linear_824_785)"/>
<path d="M900.002 0.0102539C890.153 0.0102543 880.4 1.95018 871.301 5.71929C862.201 9.48839 853.933 15.0129 846.969 21.9773C840.005 28.9416 834.48 37.2096 830.711 46.309C826.942 55.4084 825.002 65.1611 825.002 75.0103H900.002V0.0102539Z" fill="url(#paint62_linear_824_785)"/>
<path d="M450.002 450.01C440.153 450.01 430.4 451.95 421.301 455.719C412.201 459.488 403.933 465.013 396.969 471.977C390.005 478.942 384.48 487.21 380.711 496.309C376.942 505.408 375.002 515.161 375.002 525.01L450.002 525.01L450.002 450.01Z" fill="url(#paint63_linear_824_785)"/>
<path d="M300.002 225C300.002 215.151 298.062 205.399 294.293 196.299C290.524 187.2 284.999 178.932 278.035 171.967C271.071 165.003 262.803 159.479 253.703 155.71C244.604 151.94 234.851 150 225.002 150L225.002 225H300.002Z" fill="url(#paint64_linear_824_785)"/>
<path d="M450.002 225C450.002 215.151 448.062 205.399 444.293 196.299C440.524 187.2 434.999 178.932 428.035 171.967C421.071 165.003 412.803 159.479 403.703 155.71C394.604 151.94 384.851 150 375.002 150L375.002 225H450.002Z" fill="url(#paint65_linear_824_785)"/>
<path d="M600.002 225C600.002 215.151 598.062 205.399 594.293 196.299C590.524 187.2 584.999 178.932 578.035 171.967C571.071 165.003 562.803 159.479 553.703 155.71C544.604 151.94 534.851 150 525.002 150L525.002 225H600.002Z" fill="url(#paint66_linear_824_785)"/>
<path d="M750.002 225C750.002 215.151 748.062 205.399 744.293 196.299C740.524 187.2 734.999 178.932 728.035 171.967C721.071 165.003 712.803 159.479 703.703 155.71C694.604 151.94 684.851 150 675.002 150L675.002 225H750.002Z" fill="url(#paint67_linear_824_785)"/>
<path d="M900.002 225C900.002 234.85 898.062 244.602 894.293 253.702C890.524 262.801 884.999 271.069 878.035 278.033C871.071 284.998 862.803 290.522 853.703 294.291C844.604 298.061 834.851 300 825.002 300L825.002 225H900.002Z" fill="url(#paint68_linear_824_785)"/>
<path d="M150.002 374.999C150.002 384.848 148.062 394.601 144.293 403.7C140.524 412.8 134.999 421.068 128.035 428.032C121.071 434.996 112.803 440.521 103.703 444.29C94.6038 448.059 84.8511 449.999 75.0019 449.999L75.002 374.999H150.002Z" fill="url(#paint69_linear_824_785)"/>
<path d="M300.002 374.999C300.002 384.848 298.062 394.601 294.293 403.7C290.524 412.8 284.999 421.068 278.035 428.032C271.071 434.996 262.803 440.521 253.703 444.29C244.604 448.059 234.851 449.999 225.002 449.999L225.002 374.999H300.002Z" fill="url(#paint70_linear_824_785)"/>
<path d="M300.002 375.001C300.002 365.152 301.942 355.399 305.711 346.3C309.48 337.2 315.005 328.932 321.969 321.968C328.933 315.004 337.201 309.479 346.301 305.71C355.4 301.941 365.153 300.001 375.002 300.001L375.002 375.001L300.002 375.001Z" fill="url(#paint71_linear_824_785)"/>
<path d="M600.002 374.999C600.002 365.15 598.062 355.397 594.293 346.298C590.524 337.198 584.999 328.93 578.035 321.966C571.071 315.002 562.803 309.477 553.703 305.708C544.604 301.939 534.851 299.999 525.002 299.999L525.002 374.999H600.002Z" fill="url(#paint72_linear_824_785)"/>
<path d="M675.002 449.999C665.153 449.999 655.4 448.059 646.301 444.29C637.201 440.521 628.933 434.996 621.969 428.032C615.005 421.068 609.48 412.8 605.711 403.7C601.942 394.601 600.002 384.848 600.002 374.999L675.002 374.999L675.002 449.999Z" fill="url(#paint73_linear_824_785)"/>
<path d="M900.002 374.999C900.002 384.848 898.062 394.601 894.293 403.7C890.524 412.8 884.999 421.068 878.035 428.032C871.071 434.996 862.803 440.521 853.703 444.29C844.604 448.059 834.851 449.999 825.002 449.999L825.002 374.999H900.002Z" fill="url(#paint74_linear_824_785)"/>
<path d="M150.002 525C150.002 534.85 148.062 544.602 144.293 553.702C140.524 562.801 134.999 571.069 128.035 578.033C121.071 584.998 112.803 590.522 103.703 594.291C94.6038 598.061 84.8511 600 75.0019 600L75.002 525H150.002Z" fill="url(#paint75_linear_824_785)"/>
<path d="M300.002 525C300.002 534.85 298.062 544.602 294.293 553.702C290.524 562.801 284.999 571.069 278.035 578.033C271.071 584.998 262.803 590.522 253.703 594.291C244.604 598.061 234.851 600 225.002 600L225.002 525H300.002Z" fill="url(#paint76_linear_824_785)"/>
<path d="M450.002 525C450.002 534.85 448.062 544.602 444.293 553.702C440.524 562.801 434.999 571.069 428.035 578.033C421.071 584.998 412.803 590.522 403.703 594.291C394.604 598.061 384.851 600 375.002 600L375.002 525H450.002Z" fill="url(#paint77_linear_824_785)"/>
<path d="M600.002 525C600.002 534.85 598.062 544.602 594.293 553.702C590.524 562.801 584.999 571.069 578.035 578.033C571.071 584.998 562.803 590.522 553.703 594.291C544.604 598.061 534.851 600 525.002 600L525.002 525H600.002Z" fill="url(#paint78_linear_824_785)"/>
<path d="M750.002 525C750.002 534.85 748.062 544.602 744.293 553.702C740.524 562.801 734.999 571.069 728.035 578.033C721.071 584.998 712.803 590.522 703.703 594.291C694.604 598.061 684.851 600 675.002 600L675.002 525H750.002Z" fill="url(#paint79_linear_824_785)"/>
<path d="M900.002 525C900.002 515.151 898.062 505.399 894.293 496.299C890.524 487.2 884.999 478.932 878.035 471.967C871.071 465.003 862.803 459.479 853.703 455.71C844.604 451.94 834.851 450 825.002 450L825.002 525H900.002Z" fill="url(#paint80_linear_824_785)"/>
<defs>
<linearGradient id="paint0_linear_824_785" x1="85.9171" y1="114.946" x2="85.0515" y2="-22.3455" gradientUnits="userSpaceOnUse">
<stop offset="0.321659" stop-color="#DBE7FF"/>
<stop offset="1" stop-color="#2F50FF"/>
</linearGradient>
<linearGradient id="paint1_linear_824_785" x1="379.872" y1="128.17" x2="105.29" y2="129.901" gradientUnits="userSpaceOnUse">
<stop offset="0.321659" stop-color="#DBE7FF"/>
<stop offset="1" stop-color="#2F50FF"/>
</linearGradient>
<linearGradient id="paint2_linear_824_785" x1="145.13" y1="21.8436" x2="419.712" y2="20.1124" gradientUnits="userSpaceOnUse">
<stop offset="0.321659" stop-color="#DBE7FF"/>
<stop offset="1" stop-color="#2F50FF"/>
</linearGradient>
<linearGradient id="paint3_linear_824_785" x1="396.833" y1="229.882" x2="395.102" y2="-44.7012" gradientUnits="userSpaceOnUse">
<stop offset="0.321659" stop-color="#DBE7FF"/>
<stop offset="1" stop-color="#2F50FF"/>
</linearGradient>
<linearGradient id="paint4_linear_824_785" x1="445.13" y1="21.8333" x2="719.712" y2="20.1021" gradientUnits="userSpaceOnUse">
<stop offset="0.321659" stop-color="#DBE7FF"/>
<stop offset="1" stop-color="#2F50FF"/>
</linearGradient>
<linearGradient id="paint5_linear_824_785" x1="696.833" y1="229.882" x2="695.102" y2="-44.7007" gradientUnits="userSpaceOnUse">
<stop offset="0.321659" stop-color="#DBE7FF"/>
<stop offset="1" stop-color="#2F50FF"/>
</linearGradient>
<linearGradient id="paint6_linear_824_785" x1="379.872" y1="278.179" x2="105.29" y2="279.911" gradientUnits="userSpaceOnUse">
<stop offset="0.321659" stop-color="#DBE7FF"/>
<stop offset="1" stop-color="#2F50FF"/>
</linearGradient>
<linearGradient id="paint7_linear_824_785" x1="278.17" y1="70.1413" x2="279.901" y2="344.724" gradientUnits="userSpaceOnUse">
<stop offset="0.321659" stop-color="#DBE7FF"/>
<stop offset="1" stop-color="#2F50FF"/>
</linearGradient>
<linearGradient id="paint8_linear_824_785" x1="145.132" y1="171.843" x2="419.714" y2="170.112" gradientUnits="userSpaceOnUse">
<stop offset="0.321659" stop-color="#DBE7FF"/>
<stop offset="1" stop-color="#2F50FF"/>
</linearGradient>
<linearGradient id="paint9_linear_824_785" x1="471.834" y1="379.871" x2="470.103" y2="105.288" gradientUnits="userSpaceOnUse">
<stop offset="0.321659" stop-color="#DBE7FF"/>
<stop offset="1" stop-color="#2F50FF"/>
</linearGradient>
<linearGradient id="paint10_linear_824_785" x1="445.132" y1="96.8426" x2="719.714" y2="95.1114" gradientUnits="userSpaceOnUse">
<stop offset="0.321659" stop-color="#DBE7FF"/>
<stop offset="1" stop-color="#2F50FF"/>
</linearGradient>
<linearGradient id="paint11_linear_824_785" x1="878.17" y1="145.14" x2="879.901" y2="419.723" gradientUnits="userSpaceOnUse">
<stop offset="0.321659" stop-color="#DBE7FF"/>
<stop offset="1" stop-color="#2F50FF"/>
</linearGradient>
<linearGradient id="paint12_linear_824_785" x1="10.9171" y1="414.945" x2="10.0515" y2="277.654" gradientUnits="userSpaceOnUse">
<stop offset="0.321659" stop-color="#DBE7FF"/>
<stop offset="1" stop-color="#2F50FF"/>
</linearGradient>
<linearGradient id="paint13_linear_824_785" x1="229.872" y1="428.177" x2="-44.7105" y2="429.909" gradientUnits="userSpaceOnUse">
<stop offset="0.321659" stop-color="#DBE7FF"/>
<stop offset="1" stop-color="#2F50FF"/>
</linearGradient>
<linearGradient id="paint14_linear_824_785" x1="70.1315" y1="396.843" x2="344.714" y2="395.111" gradientUnits="userSpaceOnUse">
<stop offset="0.321659" stop-color="#DBE7FF"/>
<stop offset="1" stop-color="#2F50FF"/>
</linearGradient>
<linearGradient id="paint15_linear_824_785" x1="295.131" y1="246.842" x2="569.713" y2="245.111" gradientUnits="userSpaceOnUse">
<stop offset="0.321659" stop-color="#DBE7FF"/>
<stop offset="1" stop-color="#2F50FF"/>
</linearGradient>
<linearGradient id="paint16_linear_824_785" x1="653.17" y1="70.1413" x2="654.901" y2="344.724" gradientUnits="userSpaceOnUse">
<stop offset="0.321659" stop-color="#DBE7FF"/>
<stop offset="1" stop-color="#2F50FF"/>
</linearGradient>
<linearGradient id="paint17_linear_824_785" x1="728.17" y1="220.141" x2="729.901" y2="494.724" gradientUnits="userSpaceOnUse">
<stop offset="0.321659" stop-color="#DBE7FF"/>
<stop offset="1" stop-color="#2F50FF"/>
</linearGradient>
<linearGradient id="paint18_linear_824_785" x1="621.834" y1="529.881" x2="620.103" y2="255.298" gradientUnits="userSpaceOnUse">
<stop offset="0.321659" stop-color="#DBE7FF"/>
<stop offset="1" stop-color="#2F50FF"/>
</linearGradient>
<linearGradient id="paint19_linear_824_785" x1="621.834" y1="379.881" x2="620.103" y2="105.298" gradientUnits="userSpaceOnUse">
<stop offset="0.321659" stop-color="#DBE7FF"/>
<stop offset="1" stop-color="#2F50FF"/>
</linearGradient>
<linearGradient id="paint20_linear_824_785" x1="-79.7845" y1="396.843" x2="194.798" y2="395.112" gradientUnits="userSpaceOnUse">
<stop offset="0.321659" stop-color="#DBE7FF"/>
<stop offset="1" stop-color="#2F50FF"/>
</linearGradient>
<linearGradient id="paint21_linear_824_785" x1="10.9171" y1="639.947" x2="10.0515" y2="502.656" gradientUnits="userSpaceOnUse">
<stop offset="0.321659" stop-color="#DBE7FF"/>
<stop offset="1" stop-color="#2F50FF"/>
</linearGradient>
<linearGradient id="paint22_linear_824_785" x1="160.982" y1="639.945" x2="160.116" y2="502.654" gradientUnits="userSpaceOnUse">
<stop offset="0.321659" stop-color="#DBE7FF"/>
<stop offset="1" stop-color="#2F50FF"/>
</linearGradient>
<linearGradient id="paint23_linear_824_785" x1="145.169" y1="396.843" x2="419.751" y2="395.112" gradientUnits="userSpaceOnUse">
<stop offset="0.321659" stop-color="#DBE7FF"/>
<stop offset="1" stop-color="#2F50FF"/>
</linearGradient>
<linearGradient id="paint24_linear_824_785" x1="604.871" y1="503.18" x2="330.289" y2="504.911" gradientUnits="userSpaceOnUse">
<stop offset="0.321659" stop-color="#DBE7FF"/>
<stop offset="1" stop-color="#2F50FF"/>
</linearGradient>
<linearGradient id="paint25_linear_824_785" x1="370.131" y1="471.845" x2="644.713" y2="470.113" gradientUnits="userSpaceOnUse">
<stop offset="0.321659" stop-color="#DBE7FF"/>
<stop offset="1" stop-color="#2F50FF"/>
</linearGradient>
<linearGradient id="paint26_linear_824_785" x1="878.169" y1="370.142" x2="879.9" y2="644.725" gradientUnits="userSpaceOnUse">
<stop offset="0.321659" stop-color="#DBE7FF"/>
<stop offset="1" stop-color="#2F50FF"/>
</linearGradient>
<linearGradient id="paint27_linear_824_785" x1="10.9162" y1="114.679" x2="10.0621" y2="-21.697" gradientUnits="userSpaceOnUse">
<stop offset="0.321659" stop-color="#DBE7FF"/>
<stop offset="1" stop-color="#2F50FF"/>
</linearGradient>
<linearGradient id="paint28_linear_824_785" x1="379.872" y1="128.17" x2="105.29" y2="129.901" gradientUnits="userSpaceOnUse">
<stop offset="0.321659" stop-color="#DBE7FF"/>
<stop offset="1" stop-color="#2F50FF"/>
</linearGradient>
<linearGradient id="paint29_linear_824_785" x1="145.13" y1="21.8431" x2="419.712" y2="20.1119" gradientUnits="userSpaceOnUse">
<stop offset="0.321659" stop-color="#DBE7FF"/>
<stop offset="1" stop-color="#2F50FF"/>
</linearGradient>
<linearGradient id="paint30_linear_824_785" x1="460.917" y1="114.945" x2="460.052" y2="-22.346" gradientUnits="userSpaceOnUse">
<stop offset="0.321659" stop-color="#DBE7FF"/>
<stop offset="1" stop-color="#2F50FF"/>
</linearGradient>
<linearGradient id="paint31_linear_824_785" x1="535.917" y1="114.947" x2="535.052" y2="-22.344" gradientUnits="userSpaceOnUse">
<stop offset="0.321659" stop-color="#DBE7FF"/>
<stop offset="1" stop-color="#2F50FF"/>
</linearGradient>
<linearGradient id="paint32_linear_824_785" x1="760.917" y1="114.945" x2="760.052" y2="-22.346" gradientUnits="userSpaceOnUse">
<stop offset="0.321659" stop-color="#DBE7FF"/>
<stop offset="1" stop-color="#2F50FF"/>
</linearGradient>
<linearGradient id="paint33_linear_824_785" x1="10.9162" y1="264.945" x2="10.0506" y2="127.654" gradientUnits="userSpaceOnUse">
<stop offset="0.321659" stop-color="#DBE7FF"/>
<stop offset="1" stop-color="#2F50FF"/>
</linearGradient>
<linearGradient id="paint34_linear_824_785" x1="289.086" y1="259.075" x2="289.951" y2="396.366" gradientUnits="userSpaceOnUse">
<stop offset="0.321659" stop-color="#DBE7FF"/>
<stop offset="1" stop-color="#2F50FF"/>
</linearGradient>
<linearGradient id="paint35_linear_824_785" x1="529.871" y1="278.168" x2="255.289" y2="279.899" gradientUnits="userSpaceOnUse">
<stop offset="0.321659" stop-color="#DBE7FF"/>
<stop offset="1" stop-color="#2F50FF"/>
</linearGradient>
<linearGradient id="paint36_linear_824_785" x1="471.833" y1="379.871" x2="470.102" y2="105.288" gradientUnits="userSpaceOnUse">
<stop offset="0.321659" stop-color="#DBE7FF"/>
<stop offset="1" stop-color="#2F50FF"/>
</linearGradient>
<linearGradient id="paint37_linear_824_785" x1="445.13" y1="96.8426" x2="719.712" y2="95.1114" gradientUnits="userSpaceOnUse">
<stop offset="0.321659" stop-color="#DBE7FF"/>
<stop offset="1" stop-color="#2F50FF"/>
</linearGradient>
<linearGradient id="paint38_linear_824_785" x1="878.168" y1="145.14" x2="879.899" y2="419.723" gradientUnits="userSpaceOnUse">
<stop offset="0.321659" stop-color="#DBE7FF"/>
<stop offset="1" stop-color="#2F50FF"/>
</linearGradient>
<linearGradient id="paint39_linear_824_785" x1="10.9162" y1="414.945" x2="10.0506" y2="277.654" gradientUnits="userSpaceOnUse">
<stop offset="0.321659" stop-color="#DBE7FF"/>
<stop offset="1" stop-color="#2F50FF"/>
</linearGradient>
<linearGradient id="paint40_linear_824_785" x1="278.169" y1="220.141" x2="279.9" y2="494.724" gradientUnits="userSpaceOnUse">
<stop offset="0.321659" stop-color="#DBE7FF"/>
<stop offset="1" stop-color="#2F50FF"/>
</linearGradient>
<linearGradient id="paint41_linear_824_785" x1="295.13" y1="246.842" x2="569.712" y2="245.111" gradientUnits="userSpaceOnUse">
<stop offset="0.321659" stop-color="#DBE7FF"/>
<stop offset="1" stop-color="#2F50FF"/>
</linearGradient>
<linearGradient id="paint42_linear_824_785" x1="295.13" y1="171.842" x2="569.712" y2="170.111" gradientUnits="userSpaceOnUse">
<stop offset="0.321659" stop-color="#DBE7FF"/>
<stop offset="1" stop-color="#2F50FF"/>
</linearGradient>
<linearGradient id="paint43_linear_824_785" x1="635.067" y1="310.926" x2="772.358" y2="310.06" gradientUnits="userSpaceOnUse">
<stop offset="0.321659" stop-color="#DBE7FF"/>
<stop offset="1" stop-color="#2F50FF"/>
</linearGradient>
<linearGradient id="paint44_linear_824_785" x1="878.17" y1="220.128" x2="879.901" y2="494.711" gradientUnits="userSpaceOnUse">
<stop offset="0.321659" stop-color="#DBE7FF"/>
<stop offset="1" stop-color="#2F50FF"/>
</linearGradient>
<linearGradient id="paint45_linear_824_785" x1="-79.7444" y1="396.843" x2="194.838" y2="395.111" gradientUnits="userSpaceOnUse">
<stop offset="0.321659" stop-color="#DBE7FF"/>
<stop offset="1" stop-color="#2F50FF"/>
</linearGradient>
<linearGradient id="paint46_linear_824_785" x1="161.022" y1="639.945" x2="160.156" y2="502.654" gradientUnits="userSpaceOnUse">
<stop offset="0.321659" stop-color="#DBE7FF"/>
<stop offset="1" stop-color="#2F50FF"/>
</linearGradient>
<linearGradient id="paint47_linear_824_785" x1="454.95" y1="503.178" x2="180.367" y2="504.909" gradientUnits="userSpaceOnUse">
<stop offset="0.321659" stop-color="#DBE7FF"/>
<stop offset="1" stop-color="#2F50FF"/>
</linearGradient>
<linearGradient id="paint48_linear_824_785" x1="471.892" y1="604.881" x2="470.161" y2="330.298" gradientUnits="userSpaceOnUse">
<stop offset="0.321659" stop-color="#DBE7FF"/>
<stop offset="1" stop-color="#2F50FF"/>
</linearGradient>
<linearGradient id="paint49_linear_824_785" x1="728.323" y1="370.131" x2="730.054" y2="644.713" gradientUnits="userSpaceOnUse">
<stop offset="0.321659" stop-color="#DBE7FF"/>
<stop offset="1" stop-color="#2F50FF"/>
</linearGradient>
<linearGradient id="paint50_linear_824_785" x1="878.209" y1="295.14" x2="879.94" y2="569.723" gradientUnits="userSpaceOnUse">
<stop offset="0.321659" stop-color="#DBE7FF"/>
<stop offset="1" stop-color="#2F50FF"/>
</linearGradient>
<linearGradient id="paint51_linear_824_785" x1="21.8362" y1="304.879" x2="20.105" y2="30.2964" gradientUnits="userSpaceOnUse">
<stop offset="0.321659" stop-color="#DBE7FF"/>
<stop offset="1" stop-color="#2F50FF"/>
</linearGradient>
<linearGradient id="paint52_linear_824_785" x1="171.834" y1="229.871" x2="170.103" y2="-44.7115" gradientUnits="userSpaceOnUse">
<stop offset="0.321659" stop-color="#DBE7FF"/>
<stop offset="1" stop-color="#2F50FF"/>
</linearGradient>
<linearGradient id="paint53_linear_824_785" x1="321.833" y1="229.87" x2="320.102" y2="-44.7124" gradientUnits="userSpaceOnUse">
<stop offset="0.321659" stop-color="#DBE7FF"/>
<stop offset="1" stop-color="#2F50FF"/>
</linearGradient>
<linearGradient id="paint54_linear_824_785" x1="471.833" y1="229.87" x2="470.102" y2="-44.7124" gradientUnits="userSpaceOnUse">
<stop offset="0.321659" stop-color="#DBE7FF"/>
<stop offset="1" stop-color="#2F50FF"/>
</linearGradient>
<linearGradient id="paint55_linear_824_785" x1="621.834" y1="229.87" x2="620.103" y2="-44.7124" gradientUnits="userSpaceOnUse">
<stop offset="0.321659" stop-color="#DBE7FF"/>
<stop offset="1" stop-color="#2F50FF"/>
</linearGradient>
<linearGradient id="paint56_linear_824_785" x1="771.834" y1="229.87" x2="770.103" y2="-44.7124" gradientUnits="userSpaceOnUse">
<stop offset="0.321659" stop-color="#DBE7FF"/>
<stop offset="1" stop-color="#2F50FF"/>
</linearGradient>
<linearGradient id="paint57_linear_824_785" x1="21.8343" y1="379.871" x2="20.1031" y2="105.288" gradientUnits="userSpaceOnUse">
<stop offset="0.321659" stop-color="#DBE7FF"/>
<stop offset="1" stop-color="#2F50FF"/>
</linearGradient>
<linearGradient id="paint58_linear_824_785" x1="10.9181" y1="339.946" x2="10.0525" y2="202.655" gradientUnits="userSpaceOnUse">
<stop offset="0.321659" stop-color="#DBE7FF"/>
<stop offset="1" stop-color="#2F50FF"/>
</linearGradient>
<linearGradient id="paint59_linear_824_785" x1="310.917" y1="114.945" x2="310.052" y2="-22.346" gradientUnits="userSpaceOnUse">
<stop offset="0.321659" stop-color="#DBE7FF"/>
<stop offset="1" stop-color="#2F50FF"/>
</linearGradient>
<linearGradient id="paint60_linear_824_785" x1="835.918" y1="264.945" x2="835.053" y2="127.654" gradientUnits="userSpaceOnUse">
<stop offset="0.321659" stop-color="#DBE7FF"/>
<stop offset="1" stop-color="#2F50FF"/>
</linearGradient>
<linearGradient id="paint61_linear_824_785" x1="835.918" y1="639.946" x2="835.053" y2="502.655" gradientUnits="userSpaceOnUse">
<stop offset="0.321659" stop-color="#DBE7FF"/>
<stop offset="1" stop-color="#2F50FF"/>
</linearGradient>
<linearGradient id="paint62_linear_824_785" x1="835.918" y1="114.945" x2="835.053" y2="-22.346" gradientUnits="userSpaceOnUse">
<stop offset="0.321659" stop-color="#DBE7FF"/>
<stop offset="1" stop-color="#2F50FF"/>
</linearGradient>
<linearGradient id="paint63_linear_824_785" x1="604.872" y1="578.178" x2="330.29" y2="579.909" gradientUnits="userSpaceOnUse">
<stop offset="0.321659" stop-color="#DBE7FF"/>
<stop offset="1" stop-color="#2F50FF"/>
</linearGradient>
<linearGradient id="paint64_linear_824_785" x1="171.834" y1="379.871" x2="170.103" y2="105.288" gradientUnits="userSpaceOnUse">
<stop offset="0.321659" stop-color="#DBE7FF"/>
<stop offset="1" stop-color="#2F50FF"/>
</linearGradient>
<linearGradient id="paint65_linear_824_785" x1="321.834" y1="379.871" x2="320.103" y2="105.288" gradientUnits="userSpaceOnUse">
<stop offset="0.321659" stop-color="#DBE7FF"/>
<stop offset="1" stop-color="#2F50FF"/>
</linearGradient>
<linearGradient id="paint66_linear_824_785" x1="471.834" y1="379.871" x2="470.103" y2="105.288" gradientUnits="userSpaceOnUse">
<stop offset="0.321659" stop-color="#DBE7FF"/>
<stop offset="1" stop-color="#2F50FF"/>
</linearGradient>
<linearGradient id="paint67_linear_824_785" x1="621.834" y1="379.871" x2="620.103" y2="105.288" gradientUnits="userSpaceOnUse">
<stop offset="0.321659" stop-color="#DBE7FF"/>
<stop offset="1" stop-color="#2F50FF"/>
</linearGradient>
<linearGradient id="paint68_linear_824_785" x1="771.834" y1="379.871" x2="770.103" y2="105.288" gradientUnits="userSpaceOnUse">
<stop offset="0.321659" stop-color="#DBE7FF"/>
<stop offset="1" stop-color="#2F50FF"/>
</linearGradient>
<linearGradient id="paint69_linear_824_785" x1="21.8343" y1="529.869" x2="20.1031" y2="255.287" gradientUnits="userSpaceOnUse">
<stop offset="0.321659" stop-color="#DBE7FF"/>
<stop offset="1" stop-color="#2F50FF"/>
</linearGradient>
<linearGradient id="paint70_linear_824_785" x1="171.834" y1="529.869" x2="170.103" y2="255.287" gradientUnits="userSpaceOnUse">
<stop offset="0.321659" stop-color="#DBE7FF"/>
<stop offset="1" stop-color="#2F50FF"/>
</linearGradient>
<linearGradient id="paint71_linear_824_785" x1="428.17" y1="220.131" x2="429.901" y2="494.713" gradientUnits="userSpaceOnUse">
<stop offset="0.321659" stop-color="#DBE7FF"/>
<stop offset="1" stop-color="#2F50FF"/>
</linearGradient>
<linearGradient id="paint72_linear_824_785" x1="471.834" y1="529.869" x2="470.103" y2="255.287" gradientUnits="userSpaceOnUse">
<stop offset="0.321659" stop-color="#DBE7FF"/>
<stop offset="1" stop-color="#2F50FF"/>
</linearGradient>
<linearGradient id="paint73_linear_824_785" x1="520.132" y1="321.831" x2="794.714" y2="320.1" gradientUnits="userSpaceOnUse">
<stop offset="0.321659" stop-color="#DBE7FF"/>
<stop offset="1" stop-color="#2F50FF"/>
</linearGradient>
<linearGradient id="paint74_linear_824_785" x1="771.834" y1="529.869" x2="770.103" y2="255.287" gradientUnits="userSpaceOnUse">
<stop offset="0.321659" stop-color="#DBE7FF"/>
<stop offset="1" stop-color="#2F50FF"/>
</linearGradient>
<linearGradient id="paint75_linear_824_785" x1="21.8343" y1="679.871" x2="20.1031" y2="405.288" gradientUnits="userSpaceOnUse">
<stop offset="0.321659" stop-color="#DBE7FF"/>
<stop offset="1" stop-color="#2F50FF"/>
</linearGradient>
<linearGradient id="paint76_linear_824_785" x1="171.834" y1="679.871" x2="170.103" y2="405.288" gradientUnits="userSpaceOnUse">
<stop offset="0.321659" stop-color="#DBE7FF"/>
<stop offset="1" stop-color="#2F50FF"/>
</linearGradient>
<linearGradient id="paint77_linear_824_785" x1="321.834" y1="679.871" x2="320.103" y2="405.288" gradientUnits="userSpaceOnUse">
<stop offset="0.321659" stop-color="#DBE7FF"/>
<stop offset="1" stop-color="#2F50FF"/>
</linearGradient>
<linearGradient id="paint78_linear_824_785" x1="471.834" y1="679.871" x2="470.103" y2="405.288" gradientUnits="userSpaceOnUse">
<stop offset="0.321659" stop-color="#DBE7FF"/>
<stop offset="1" stop-color="#2F50FF"/>
</linearGradient>
<linearGradient id="paint79_linear_824_785" x1="621.834" y1="679.871" x2="620.103" y2="405.288" gradientUnits="userSpaceOnUse">
<stop offset="0.321659" stop-color="#DBE7FF"/>
<stop offset="1" stop-color="#2F50FF"/>
</linearGradient>
<linearGradient id="paint80_linear_824_785" x1="771.834" y1="679.871" x2="770.103" y2="405.288" gradientUnits="userSpaceOnUse">
<stop offset="0.321659" stop-color="#DBE7FF"/>
<stop offset="1" stop-color="#2F50FF"/>
</linearGradient>
</defs>
</svg>
