<svg width="900" height="600" viewBox="0 0 900 600" fill="none" xmlns="http://www.w3.org/2000/svg">
<rect width="900" height="600" fill="#9ADDAD"/>
<path d="M29 300C12.9838 300 -0.145559 313.015 1.3998 328.956C8.08243 397.892 38.4736 462.738 87.868 512.132C144.129 568.393 220.435 600 300 600C379.565 600 455.871 568.393 512.132 512.132C561.526 462.738 591.918 397.893 598.6 328.956C600.146 313.015 587.016 300 571 300L300 300L29 300Z" fill="#D2FFDE"/>
<path d="M600 571C600 587.016 613.015 600.146 628.956 598.6C697.892 591.918 762.738 561.526 812.132 512.132C868.393 455.871 900 379.565 900 300C900 220.435 868.393 144.129 812.132 87.868C762.738 38.4737 697.892 8.08247 628.956 1.39983C613.015 -0.145531 600 12.9838 600 29L600 300L600 571Z" fill="#D2FFDE"/>
<circle cx="450" cy="150" r="150" fill="#4D948F"/>
</svg>
