<svg width="461" height="286" viewBox="0 0 461 286" fill="none" xmlns="http://www.w3.org/2000/svg">
<path d="M226.5 185.5L341.631 198.672C343.444 198.879 345.253 198.25 346.547 196.963L451.033 92.9384C454.091 89.8945 453.032 84.7151 449.026 83.1145L261.672 8.2672C259.706 7.48159 257.471 7.79077 255.791 9.08072L157.613 84.4927C155.986 85.7428 155.11 87.7381 155.292 89.7823L164.852 197.336C164.949 198.425 164.746 199.519 164.267 200.501L134.405 261.625C133.527 263.422 131.811 264.663 129.83 264.935L35.8365 277.836C33.0195 278.223 30.3179 276.579 29.3665 273.9L7.95073 213.586C7.08479 211.147 7.88012 208.428 9.92377 206.84L69.4131 160.622C70.7429 159.588 72.4455 159.162 74.1054 159.445L226.5 185.5Z" stroke="#C45166" stroke-width="15" stroke-dasharray="30 50"/>
</svg>
