<svg width="86" height="86" viewBox="0 0 86 86" fill="none" xmlns="http://www.w3.org/2000/svg">
<path d="M43 0L49.5532 12.1698L60.4897 3.71754L61.5264 17.5006L74.9552 14.2274L70.2962 27.2405L83.8954 29.7123L74.3463 39.7054L85.7644 47.4947L72.9763 52.7399L80.2391 64.5L66.4232 64.0903L68.2748 77.7877L55.8199 71.794L51.9402 85.0603L43 74.519L34.0598 85.0603L30.1801 71.794L17.7252 77.7877L19.5768 64.0903L5.76091 64.5L13.0237 52.7399L0.235558 47.4947L11.6537 39.7054L2.10457 29.7123L15.7037 27.2405L11.0448 14.2274L24.4736 17.5006L25.5103 3.71754L36.4468 12.1698L43 0Z" fill="#F87878"/>
</svg>
