<svg width="946" height="1037" viewBox="0 0 946 1037" fill="none" xmlns="http://www.w3.org/2000/svg">
<path d="M537.67 667.511L530.203 754.714L610.901 903.782L946 1036.5V870L719.387 831.045L610.901 754.714L600.784 667.511L548.028 619.814L657.152 467.089L684.373 332.912L644.867 204.276L657.152 308.582V403.975L530.203 572.84L522.253 524.421L487.083 409.757L353.388 343.753L300.633 271.967L343.993 343.753L479.615 425.174L496.478 511.895C469.498 503.801 435.934 468.374 422.524 451.672C308.63 461.115 255.586 427.663 243.301 409.757L217.043 365.915L243.301 425.174C170.455 409.757 138.593 325.284 131.768 284.975C129.118 288.187 132.153 310.895 165.493 376.032C198.832 441.169 339.497 463.877 405.662 467.089C431.678 467.667 435.934 473.754 434.809 476.725C442.903 515.46 483.791 538.794 503.223 545.62V619.814L537.67 667.511Z" fill="#95C0BE"/>
<path d="M678.584 861.871L946 911V1017.5L637.115 883.381L568.148 788.912L555.729 676.923L516.712 618.129C516.175 614.365 513.998 579.33 510.337 553.065L509.486 547.307C509.778 549.165 510.061 551.09 510.337 553.065L519.844 617.406L564.168 664.862L588.771 788.912L678.584 861.871Z" fill="#6A9C9A"/>
<circle cx="226.679" cy="320.628" r="64.7998" fill="#B0E8CF"/>
<circle cx="468.775" cy="340.14" r="65.5225" fill="#B0E8CF"/>
<circle cx="695.936" cy="126.951" r="55.1642" fill="#B0E8CF"/>
<circle cx="758.808" cy="304.488" r="101.174" fill="#B0E8CF"/>
<ellipse cx="113.46" cy="274.856" rx="113.46" ry="102.379" fill="#CBFFDA"/>
<ellipse cx="319.422" cy="256.309" rx="62.15" ry="64.0772" fill="#CBFFDA"/>
<ellipse cx="344.716" cy="407.106" rx="48.901" ry="49.6237" fill="#CBFFDA"/>
<circle cx="594.039" cy="387.835" r="131.527" fill="#CBFFDA"/>
<circle cx="684.373" cy="182.354" r="66.727" fill="#CBFFDA"/>
<circle cx="609.456" cy="75.1582" r="75.1582" fill="#CBFFDA"/>
<path d="M88.0946 333.666C87.9387 330.632 91.8744 329.315 93.5761 331.832L95.5683 334.779C96.1569 335.65 97.1581 336.149 98.2076 336.095L101.76 335.913C104.795 335.757 106.112 339.693 103.594 341.394L100.647 343.386C99.7765 343.975 99.2773 344.976 99.3312 346.026L99.5138 349.578C99.6696 352.613 95.7339 353.93 94.0323 351.412L92.0401 348.465C91.4515 347.595 90.4503 347.095 89.4007 347.149L85.8481 347.332C82.8137 347.488 81.4968 343.552 84.0141 341.85L86.9612 339.858C87.8318 339.27 88.3311 338.268 88.2771 337.219L88.0946 333.666Z" fill="#BDEFCB"/>
<path d="M647.017 391.918C646.861 388.884 650.797 387.567 652.498 390.084L657.974 398.184C658.563 399.055 659.564 399.554 660.613 399.5L670.378 398.999C673.412 398.843 674.729 402.778 672.212 404.48L664.112 409.956C663.241 410.544 662.742 411.546 662.796 412.595L663.297 422.36C663.453 425.394 659.518 426.711 657.816 424.194L652.34 416.093C651.752 415.223 650.75 414.724 649.701 414.777L639.936 415.279C636.902 415.435 635.585 411.499 638.102 409.798L646.203 404.322C647.073 403.733 647.572 402.732 647.519 401.683L647.017 391.918Z" fill="#BDEFCB"/>
<path d="M663.297 76.3753C664.664 74.0593 668.212 75.0101 668.239 77.6995V77.6995C668.248 78.6297 668.743 79.4873 669.544 79.9603V79.9603C671.86 81.3277 670.909 84.8761 668.22 84.9023V84.9023C667.289 84.9114 666.432 85.4066 665.959 86.2076V86.2076C664.591 88.5236 661.043 87.5728 661.017 84.8834V84.8834C661.008 83.9532 660.513 83.0955 659.712 82.6226V82.6226C657.396 81.2552 658.346 77.7068 661.036 77.6805V77.6805C661.966 77.6715 662.824 77.1763 663.297 76.3753V76.3753Z" fill="#BDEFCB"/>
<path d="M652.232 197.314C651.743 195.001 654.608 193.511 656.222 195.238V195.238C656.78 195.836 657.61 196.098 658.41 195.929V195.929C660.723 195.44 662.214 198.305 660.486 199.919V199.919C659.888 200.477 659.626 201.307 659.795 202.107V202.107C660.284 204.42 657.419 205.911 655.805 204.183V204.183C655.247 203.585 654.417 203.324 653.617 203.493V203.493C651.304 203.981 649.813 201.116 651.541 199.503V199.503C652.139 198.945 652.401 198.114 652.232 197.314V197.314Z" fill="#BDEFCB"/>
<path d="M356.946 422.976C356.458 420.663 359.322 419.173 360.936 420.901V420.901C361.494 421.498 362.324 421.76 363.125 421.591V421.591C365.438 421.102 366.928 423.967 365.2 425.581V425.581C364.603 426.139 364.341 426.969 364.51 427.769V427.769C364.998 430.083 362.134 431.573 360.52 429.845V429.845C359.962 429.248 359.132 428.986 358.332 429.155V429.155C356.018 429.643 354.528 426.779 356.256 425.165V425.165C356.853 424.607 357.115 423.776 356.946 422.976V422.976Z" fill="#BDEFCB"/>
<path d="M163.12 226.873C165.29 225.667 167.673 228.08 166.439 230.234V230.234C166.012 230.979 166.006 231.893 166.424 232.644V232.644C167.63 234.813 165.217 237.196 163.063 235.962V235.962C162.318 235.535 161.404 235.53 160.653 235.947V235.947C158.484 237.154 156.101 234.741 157.335 232.587V232.587C157.762 231.841 157.767 230.927 157.35 230.177V230.177C156.143 228.007 158.556 225.625 160.71 226.858V226.858C161.456 227.285 162.37 227.291 163.12 226.873V226.873Z" fill="#BDEFCB"/>
<path d="M440.403 325.755L461.448 327.6L449.328 344.903L440.403 325.755Z" fill="#AADCC6"/>
<path d="M703.091 278.554L740.878 266.723L732.23 305.362L703.091 278.554Z" fill="#AADCC6"/>
</svg>
